<svg xmlns="http://www.w3.org/2000/svg" xmlns:xlink="http://www.w3.org/1999/xlink" viewBox="0 0 140 140">
  <defs>
    <style>.cls-1{fill:#000000;}.cls-2{opacity:0;fill:#fff;}.cls-3{opacity:0;fill:url(#무제_그라디언트_43);}.cls-4{opacity:0;fill:url(#무제_그라디언트_15);}</style>
    <linearGradient id="무제_그라디언트_43" x1="66.42" y1="98" x2="40.03" y2="135.41" gradientUnits="userSpaceOnUse">
      <stop offset="0" stop-color="#3750e2" stop-opacity="0.6"/>
      <stop offset="0.19" stop-color="#3851e7" stop-opacity="0.57"/>
      <stop offset="0.21" stop-color="#3248db" stop-opacity="0.51"/>
      <stop offset="0.26" stop-color="#2535c1" stop-opacity="0.37"/>
      <stop offset="0.31" stop-color="#1924ab" stop-opacity="0.26"/>
      <stop offset="0.37" stop-color="#101799" stop-opacity="0.16"/>
      <stop offset="0.44" stop-color="#090d8c" stop-opacity="0.09"/>
      <stop offset="0.53" stop-color="#040582" stop-opacity="0.04"/>
      <stop offset="0.65" stop-color="#01017d" stop-opacity="0.01"/>
      <stop offset="0.98" stop-color="#00007b" stop-opacity="0"/>
    </linearGradient>
    <linearGradient id="무제_그라디언트_15" x1="49.75" y1="95.91" x2="72.18" y2="73.07" gradientUnits="userSpaceOnUse">
      <stop offset="0.05" stop-color="#3750e2" stop-opacity="0.6"/>
      <stop offset="0.43" stop-color="#3851e7" stop-opacity="0.57"/>
      <stop offset="0.44" stop-color="#364de2" stop-opacity="0.55"/>
      <stop offset="0.6" stop-color="#1f2cb6" stop-opacity="0.31"/>
      <stop offset="0.74" stop-color="#0e1496" stop-opacity="0.14"/>
      <stop offset="0.85" stop-color="#040582" stop-opacity="0.04"/>
      <stop offset="0.92" stop-color="#00007b" stop-opacity="0"/>
    </linearGradient>
  </defs>
  <title>자산 1</title>
  <g id="레이어_2" data-name="레이어 2">
    <g id="레이어_1-2" data-name="레이어 1">
      <path class="cls-1" d="M80.78,51.63c-.42-.65-.9-1.31-1.4-2h0a37.56,37.56,0,0,0-7-7.47,1.83,1.83,0,0,0-.16-.13L72.07,42c-.25-.17-.38-.24-.38-.24h0a3.49,3.49,0,0,0-.9-.37A3.79,3.79,0,0,0,70,41.3a2.58,2.58,0,0,0-.63.08,4,4,0,0,0-1.42.73c-.16.11-.35.26-.55.43a42.91,42.91,0,0,0-8,9.09A31.63,31.63,0,0,0,54.14,69a26.33,26.33,0,0,0,2.89,12l.31.59c.13.25.28.49.42.74A40.43,40.43,0,0,0,65.24,91c1.86,1.57,3.57,2.9,5.11,4,1-.73,2-1.47,2.89-2.23l0,0c.49-.4,1-.81,1.42-1.22l.09-.08c.44-.39.86-.78,1.27-1.17l.2-.2c.36-.36.73-.72,1.07-1.08.12-.12.23-.25.34-.37l.86-.93.53-.64c.19-.23.4-.46.58-.69.36-.45.71-.91,1-1.36A27.08,27.08,0,0,0,86,69,31.63,31.63,0,0,0,80.78,51.63Z"/>
      <path class="cls-1" d="M71.58,114.64l-1.45-.88,0,0c-9.29,4.51-19.21,12.46-24.56,21.82a70.13,70.13,0,0,0,49.22-.12C89,126.27,80.84,120.05,71.58,114.64Z"/>
      <path class="cls-1" d="M140,70A70,70,0,1,0,30.65,127.89c.51-.8,1.4-2.13,2.14-3.22S42.36,111.26,55.86,104h0s-.32-.25-.48-.39l-.28-.25C47.9,97.1,42.92,90.23,40.23,82.77c0-.08-.06-.15-.1-.24A38.07,38.07,0,0,1,37.8,70.79v0a46.65,46.65,0,0,1,.07-5.07c0-.06,0-.12,0-.17,0-.43,0-.7,0-.7h0a44.55,44.55,0,0,1,1.08-7c2.53-10.5,8.6-18.46,14.52-24.08l-.05,0A60.87,60.87,0,0,1,66.87,24l.09,0,0,0h0a6.58,6.58,0,0,1,3-.7,6.47,6.47,0,0,1,2.13.34h0s1.26.2,5.7,3.27c.84.56,1.77,1.22,2.79,2h0c8.33,6.33,21.7,19.7,21.7,40.15,0,.84,0,1.67-.07,2.5,0,.33-.06.65-.09,1,0,.49-.07,1-.13,1.47s-.12.85-.19,1.27-.1.77-.17,1.14-.2,1-.31,1.44c-.06.31-.12.62-.2.93-.13.53-.28,1-.43,1.56-.07.26-.13.52-.21.77-.18.56-.37,1.11-.57,1.66-.07.21-.14.42-.22.62-.22.59-.46,1.17-.71,1.75l-.21.49c-.27.61-.57,1.22-.87,1.82-.07.13-.13.26-.19.39-.33.62-.68,1.24-1,1.86-.06.1-.11.2-.17.29-.38.65-.78,1.28-1.2,1.91l-.14.21c-.43.65-.89,1.3-1.37,1.94a.71.71,0,0,1-.1.14c-.49.66-1,1.31-1.54,2l-.07.08c-.55.66-1.12,1.31-1.71,2l0,0c-.6.66-1.22,1.31-1.87,2v0q-2,1.94-4.17,3.8h0l0,0,.94.53c13,7.44,21.43,19.31,22.19,20.42s1.47,2.22,1.94,3A69.9,69.9,0,0,0,140,70Z"/>
      <path class="cls-2" d="M70.1,113.78l0,0-.74-.46c-1.69-1-2.94-1.78-4.3-2.66a106.76,106.76,0,0,1-9.21-6.71h0c-13.5,7.31-22.31,19.61-23.07,20.72s-1.63,2.42-2.14,3.22a67.54,67.54,0,0,0,7.1,4.24,68.87,68.87,0,0,0,7.79,3.47C50.89,126.24,60.81,118.29,70.1,113.78Z"/>
      <path class="cls-3" d="M70.1,113.78l0,0-.74-.46c-1.69-1-2.94-1.78-4.3-2.66a106.76,106.76,0,0,1-9.21-6.71h0c-13.5,7.31-22.31,19.61-23.07,20.72s-1.63,2.42-2.14,3.22A69.2,69.2,0,0,0,37.53,132a70.25,70.25,0,0,0,8,3.58C50.89,126.24,60.81,118.29,70.1,113.78Z"/>
      <path class="cls-2" d="M107.41,124.93c-.76-1.11-9.16-13-22.19-20.42l-.94-.53,0,0h0q2.22-1.86,4.17-3.8v0c.65-.64,1.27-1.29,1.87-2l0,0c.59-.65,1.16-1.3,1.71-2l.07-.08c.53-.65,1.05-1.3,1.54-2a.71.71,0,0,0,.1-.14c.48-.64.94-1.29,1.37-1.94l.14-.21c.42-.63.82-1.26,1.2-1.91.06-.09.11-.19.17-.29.35-.62.7-1.24,1-1.86.06-.13.12-.26.19-.39.3-.6.6-1.21.87-1.82l.21-.49c.25-.58.49-1.16.71-1.75.08-.2.15-.41.22-.62.2-.55.39-1.1.57-1.66.08-.25.14-.51.21-.77.15-.52.3-1,.43-1.56.08-.31.14-.62.2-.93.11-.48.22-1,.31-1.44s.11-.76.17-1.14.14-.84.19-1.27.09-1,.13-1.47c0-.33.07-.65.09-1,0-.83.07-1.66.07-2.5,0-20.45-13.37-33.82-21.7-40.15h0c-1-.78-2-1.44-2.79-2-4.44-3.07-5.7-3.27-5.7-3.27h0A6.47,6.47,0,0,0,70,23.21a6.58,6.58,0,0,0-3,.7h0l0,0-.09,0a60.87,60.87,0,0,0-13.4,9.91l.05,0C47.6,39.47,41.53,47.43,39,57.93a44.55,44.55,0,0,0-1.08,7h0s0,.27,0,.7c0,0,0,.11,0,.17a46.65,46.65,0,0,0-.07,5.07v0a38.07,38.07,0,0,0,2.33,11.74c0,.09.06.16.1.24,2.69,7.46,7.67,14.33,14.88,20.52l.28.25c.16.14.48.39.48.39h0a106.76,106.76,0,0,0,9.21,6.71c1.36.88,2.61,1.64,4.3,2.66l.74.46,1.45.88c9.26,5.41,17.46,11.63,23.18,20.84a69.45,69.45,0,0,0,14.59-7.59C108.88,127.15,108.23,126.13,107.41,124.93ZM79.62,86.39c-.18.23-.39.46-.58.69l-.53.64-.86.93c-.11.12-.22.25-.34.37-.34.36-.71.72-1.07,1.08l-.2.2c-.41.39-.83.78-1.27,1.17l-.09.08c-.46.41-.93.82-1.42,1.22l0,0c-.92.76-1.89,1.5-2.89,2.23-1.54-1.14-3.25-2.47-5.11-4a40.43,40.43,0,0,1-7.48-8.71c-.14-.25-.29-.49-.42-.74L57,80.94a26.33,26.33,0,0,1-2.89-12,31.63,31.63,0,0,1,5.25-17.35,42.91,42.91,0,0,1,8-9.09c.2-.17.39-.32.55-.43a4,4,0,0,1,1.42-.73A2.58,2.58,0,0,1,70,41.3a3.79,3.79,0,0,1,.79.08,3.49,3.49,0,0,1,.9.37h0s.13.07.38.24l.14.08a1.83,1.83,0,0,1,.16.13,37.56,37.56,0,0,1,7,7.47h0c.5.66,1,1.32,1.4,2A31.63,31.63,0,0,1,86,69a27.08,27.08,0,0,1-5.38,16C80.33,85.48,80,85.94,79.62,86.39Z"/>
      <path class="cls-4" d="M84.07,103.87l.21.11c.66-.56,1.41-1.2,2.2-1.92,1-1,1.82-1.72,2-1.93v0c.65-.64,1.27-1.29,1.87-2l0,0c.59-.65,1.16-1.3,1.71-2l.07-.08c.53-.65,1.05-1.3,1.54-2a.71.71,0,0,0,.1-.14c.48-.64.94-1.29,1.37-1.94l.14-.21c.42-.63.82-1.26,1.2-1.9l.17-.3c.35-.62.7-1.24,1-1.86.06-.13.12-.26.19-.39.3-.6.6-1.21.87-1.82l.21-.49c.25-.58.49-1.16.71-1.75.08-.2.15-.41.22-.62.2-.55.39-1.1.57-1.66.08-.25.14-.51.21-.77.15-.52.3-1,.43-1.56.08-.31.14-.62.2-.93.11-.48.22-1,.31-1.44s.11-.76.17-1.14.14-.84.19-1.27.09-1,.13-1.47c0-.33.07-.65.09-1,0-.83.07-1.66.07-2.5,0-25.14-20.21-39.58-26.41-43.41L72.21,42.06h0a47.43,47.43,0,0,1,8.57,9.56A31.63,31.63,0,0,1,86,69a27.08,27.08,0,0,1-5.38,16c-.32.45-.67.91-1,1.36-.18.23-.39.46-.58.69l-.53.64-.86.93c-.11.12-.22.25-.34.37-.34.36-.71.72-1.07,1.08l-.2.2c-.41.39-.83.78-1.27,1.17l-.09.08c-.46.41-.93.82-1.42,1.22l0,0c-.92.76-1.89,1.5-2.89,2.23,1.13.82,3.78,2.65,6.66,4.46C81,102,81.6,102.47,84.07,103.87Z"/>
    </g>
  </g>
</svg>